<?xml version="1.0" encoding="UTF-8" standalone="no"?>
<!DOCTYPE svg PUBLIC "-//W3C//DTD SVG 1.1//EN" "http://www.w3.org/Graphics/SVG/1.1/DTD/svg11.dtd">
<svg width="100%" height="100%" viewBox="0 0 2276 1288" version="1.1" xmlns="http://www.w3.org/2000/svg" xmlns:xlink="http://www.w3.org/1999/xlink" xml:space="preserve" xmlns:serif="http://www.serif.com/" style="fill-rule:evenodd;clip-rule:evenodd;stroke-linecap:round;stroke-linejoin:round;stroke-miterlimit:1.5;">
    <g transform="matrix(1,0,0,1,0,-310.382)">
        <g id="Grackle" transform="matrix(1.07274,0,0,0.949145,346.225,2015.18)">
            <rect x="-322.749" y="-1796.14" width="2121.33" height="1356.45" style="fill:none;"/>
            <g id="grackle" transform="matrix(0.932195,0,0,1.05358,-43.4402,-3044.28)">
                <g transform="matrix(1.33809,0,0,1.33809,-652.673,-923.551)">
                    <path d="M1316.22,2364.07L1386.28,2497.4C1386.28,2497.4 1302.61,2496.23 1273.43,2507.25C1244.25,2518.27 1247.35,2528.83 1247.35,2528.83C1247.35,2528.83 1325.31,2526.91 1384.4,2527.79C1443.5,2528.67 1540.36,2527.95 1540.36,2527.95C1540.36,2527.95 1541.82,2512.35 1520.54,2507.65C1488.91,2500.66 1484.21,2498.12 1464.89,2498.45C1445.58,2498.77 1433.75,2503.84 1413.13,2471.41C1392.52,2438.98 1352.84,2359.91 1352.84,2359.91L1316.22,2364.07Z" style="fill:white;"/>
                </g>
                <g transform="matrix(1.33809,0,0,1.33809,-652.673,-923.551)">
                    <path d="M1362.66,2325.14L1510.1,2324.6C1510.1,2324.6 1496.82,2352.63 1488.71,2363.64C1480.59,2374.66 1473.77,2379.68 1469.13,2387.15C1464.49,2394.62 1464.47,2399.26 1460.35,2407.75C1456.23,2416.25 1454.66,2420.6 1457.64,2430.41C1460.62,2440.23 1463.68,2453.34 1469.58,2455.44C1475.48,2457.53 1479.95,2456.22 1478.32,2448.41C1476.68,2440.59 1472.44,2428.25 1474.47,2422.05C1476.5,2415.86 1482.6,2407.09 1482.6,2407.09C1482.6,2407.09 1486.83,2410.98 1493.89,2407.99C1500.94,2405 1512.88,2393.32 1519.04,2380.03C1525.2,2366.74 1536.67,2335.9 1536.67,2335.9C1536.67,2335.9 1543.12,2337.95 1547.15,2333.4C1551.19,2328.84 1554.28,2326.61 1554.28,2326.61C1554.28,2326.61 1576.56,2368.44 1582.66,2380.95C1588.76,2393.46 1588.34,2392.16 1588.25,2403.59C1588.15,2415.02 1599.43,2422.29 1599.43,2422.29C1599.43,2422.29 1599.22,2431.72 1597.7,2437.52C1596.17,2443.32 1590.58,2456.66 1590.58,2456.66C1590.58,2456.66 1609.25,2446.94 1613.18,2438.35C1617.12,2429.76 1617.17,2413.45 1617.17,2413.45C1617.17,2413.45 1624.22,2413.79 1621.3,2401C1618.39,2388.21 1610.55,2380.1 1606.53,2371.68C1602.51,2363.25 1593.39,2338.38 1590.6,2331.72C1587.81,2325.07 1590.77,2313.84 1583.7,2307.77C1576.63,2301.69 1573.04,2300.83 1566.41,2295.25C1559.78,2289.66 1549.53,2283.26 1540.07,2282.42C1530.61,2281.57 1467.37,2284.79 1449.85,2284.95C1432.33,2285.1 1399.93,2286.67 1399.93,2286.67L1372.02,2313.98L1362.66,2325.14Z" style="fill:white;"/>
                </g>
                <g transform="matrix(1.33809,0,0,1.33809,-652.673,-923.551)">
                    <path d="M1598.9,1980.9C1598.9,1980.9 1564.98,2054.26 1524.01,2076.46C1483.04,2098.66 1412.56,2106.51 1412.56,2106.51C1412.56,2106.51 1241.22,2257.4 1190.88,2289.5C1140.54,2321.61 1082.88,2355.78 1000.71,2361.85C927.499,2367.25 913.822,2329.17 913.822,2329.17L1158.32,2146.08L1116.84,2114.62L1158.19,2087.04L1114.81,2053.78L1162.21,2026.43" style="fill:none;stroke:white;stroke-width:26.47px;"/>
                </g>
                <g transform="matrix(1.33809,0,0,1.33809,-652.673,-923.551)">
                    <path d="M1077,2200.9L429.275,2179.67L400.982,2136.97L367.795,2176.2L290.569,2169.78C290.569,2169.78 276.319,2107.3 328.351,2075.92C368.429,2051.74 550.867,2088.05 550.867,2088.05L583.257,2053.23L608.437,2096.26L1028.84,2139.16" style="fill:none;stroke:white;stroke-width:26.47px;"/>
                </g>
                <g transform="matrix(1.33809,0,0,1.33809,-652.673,-923.551)">
                    <path d="M576.706,1996.03C576.706,1996.03 578.449,1957.98 606.984,1935.44C635.52,1912.91 653.001,1909.82 721.991,1920.6C790.981,1931.38 899.767,1964.74 948.011,1983.94C996.255,2003.15 1031.38,2019.07 1031.38,2019.07L1539.13,1805.36C1539.13,1805.36 1566.59,1715.77 1616.84,1657.98C1667.09,1600.18 1706.01,1593.55 1739.15,1596.72C1772.29,1599.88 1791.88,1621.97 1791.88,1621.97C1791.88,1621.97 1840.81,1621.91 1874.82,1628.62C1908.83,1635.32 1940.57,1659.03 1940.57,1659.03C1940.57,1659.03 1860.09,1675.98 1833.32,1689.62C1806.54,1703.25 1758.88,1716.3 1737.88,1835.39C1716.88,1954.48 1692.53,2031.62 1629.99,2105.61C1567.45,2179.6 1480.95,2238.64 1435.99,2258.85C1391.04,2279.05 1383.23,2282.2 1370.36,2299.26C1357.48,2316.33 1344.5,2357.21 1344.5,2357.21C1344.5,2357.21 1316.05,2367.63 1304.6,2345.38C1293.16,2323.13 1300.47,2295.99 1307.08,2274.97C1313.7,2253.95 1320.17,2241.24 1320.17,2241.24L1274.85,2223.73" style="fill:none;stroke:white;stroke-width:26.47px;"/>
                </g>
                <g transform="matrix(1.33809,0,0,1.33809,-652.673,-923.551)">
                    <path d="M1027.85,2071.85L800.106,2032.48L776.654,1995.17L746.869,2029.93C746.869,2029.93 639.419,2009.42 585.116,1997.49C530.813,1985.56 483.348,1977.12 445.376,1991.61C391.958,2011.98 394.888,2064.52 394.888,2064.52" style="fill:none;stroke:white;stroke-width:26.47px;"/>
                </g>
            </g>
        </g>
    </g>
</svg>
