<?xml version="1.0" encoding="UTF-8" standalone="no"?>
<!DOCTYPE svg PUBLIC "-//W3C//DTD SVG 1.1//EN" "http://www.w3.org/Graphics/SVG/1.1/DTD/svg11.dtd">
<svg width="100%" height="100%" viewBox="0 0 1426 365" version="1.1" xmlns="http://www.w3.org/2000/svg" xmlns:xlink="http://www.w3.org/1999/xlink" xml:space="preserve" xmlns:serif="http://www.serif.com/" style="fill-rule:evenodd;clip-rule:evenodd;stroke-linejoin:round;stroke-miterlimit:2;">
    <g transform="matrix(1,0,0,1,-542.363,-2258.58)">
        <g id="Branding" transform="matrix(0.886218,0,0,0.800207,248.569,1827.44)">
            <rect x="70.891" y="319.568" width="3205.69" height="2305.07" style="fill:none;"/>
            <g transform="matrix(1.12839,0,0,1.24968,-2709.98,-1082)">
                <path d="M2914.22,1556.96L2920.62,1589.36L2960.62,1589.36L2960.62,1434.96L2840.62,1434.96L2840.62,1481.76L2903.82,1481.76C2901.96,1501.76 2895.36,1517.03 2884.02,1527.56C2872.69,1538.1 2856.62,1543.36 2835.82,1543.36C2821.69,1543.36 2809.69,1540.63 2799.82,1535.16C2789.96,1529.7 2781.96,1522.43 2775.82,1513.36C2769.69,1504.3 2765.22,1494.1 2762.42,1482.76C2759.62,1471.43 2758.22,1459.76 2758.22,1447.76C2758.22,1435.23 2759.62,1423.1 2762.42,1411.36C2765.22,1399.63 2769.69,1389.16 2775.82,1379.96C2781.96,1370.76 2789.96,1363.43 2799.82,1357.96C2809.69,1352.5 2821.69,1349.76 2835.82,1349.76C2851.02,1349.76 2863.96,1353.76 2874.62,1361.76C2885.29,1369.76 2892.49,1381.76 2896.22,1397.76L2956.22,1397.76C2954.62,1381.5 2950.22,1367.1 2943.02,1354.56C2935.82,1342.03 2926.69,1331.5 2915.62,1322.96C2904.56,1314.43 2892.16,1307.96 2878.42,1303.56C2864.69,1299.16 2850.49,1296.96 2835.82,1296.96C2813.96,1296.96 2794.29,1300.83 2776.82,1308.56C2759.36,1316.3 2744.62,1326.96 2732.62,1340.56C2720.62,1354.16 2711.42,1370.1 2705.02,1388.36C2698.62,1406.63 2695.42,1426.43 2695.42,1447.76C2695.42,1468.56 2698.62,1487.96 2705.02,1505.96C2711.42,1523.96 2720.62,1539.63 2732.62,1552.96C2744.62,1566.3 2759.36,1576.76 2776.82,1584.36C2794.29,1591.96 2813.96,1595.76 2835.82,1595.76C2849.69,1595.76 2863.42,1592.9 2877.02,1587.16C2890.62,1581.43 2903.02,1571.36 2914.22,1556.96Z" style="fill-rule:nonzero;"/>
                <path d="M2981.42,1382.56L2981.42,1589.36L3038.22,1589.36L3038.22,1496.16C3038.22,1486.83 3039.16,1478.16 3041.02,1470.16C3042.89,1462.16 3046.02,1455.16 3050.42,1449.16C3054.82,1443.16 3060.62,1438.43 3067.82,1434.96C3075.02,1431.5 3083.82,1429.76 3094.22,1429.76C3097.69,1429.76 3101.29,1429.96 3105.02,1430.36C3108.76,1430.76 3111.96,1431.23 3114.62,1431.76L3114.62,1378.96C3110.09,1377.63 3105.96,1376.96 3102.22,1376.96C3095.02,1376.96 3088.09,1378.03 3081.42,1380.16C3074.76,1382.3 3068.49,1385.3 3062.62,1389.16C3056.76,1393.03 3051.56,1397.7 3047.02,1403.16C3042.49,1408.63 3038.89,1414.56 3036.22,1420.96L3035.42,1420.96L3035.42,1382.56L2981.42,1382.56Z" style="fill-rule:nonzero;"/>
                <path d="M3245.02,1463.76L3152.62,1463.76C3152.89,1459.76 3153.76,1455.23 3155.22,1450.16C3156.69,1445.1 3159.22,1440.3 3162.82,1435.76C3166.42,1431.23 3171.22,1427.43 3177.22,1424.36C3183.22,1421.3 3190.76,1419.76 3199.82,1419.76C3213.69,1419.76 3224.02,1423.5 3230.82,1430.96C3237.62,1438.43 3242.36,1449.36 3245.02,1463.76ZM3152.62,1499.76L3301.82,1499.76C3302.89,1483.76 3301.56,1468.43 3297.82,1453.76C3294.09,1439.1 3288.02,1426.03 3279.62,1414.56C3271.22,1403.1 3260.49,1393.96 3247.42,1387.16C3234.36,1380.36 3219.02,1376.96 3201.42,1376.96C3185.69,1376.96 3171.36,1379.76 3158.42,1385.36C3145.49,1390.96 3134.36,1398.63 3125.02,1408.36C3115.69,1418.1 3108.49,1429.63 3103.42,1442.96C3098.36,1456.3 3095.82,1470.7 3095.82,1486.16C3095.82,1502.16 3098.29,1516.83 3103.22,1530.16C3108.16,1543.5 3115.16,1554.96 3124.22,1564.56C3133.29,1574.16 3144.36,1581.56 3157.42,1586.76C3170.49,1591.96 3185.16,1594.56 3201.42,1594.56C3224.89,1594.56 3244.89,1589.23 3261.42,1578.56C3277.96,1567.9 3290.22,1550.16 3298.22,1525.36L3248.22,1525.36C3246.36,1531.76 3241.29,1537.83 3233.02,1543.56C3224.76,1549.3 3214.89,1552.16 3203.42,1552.16C3187.42,1552.16 3175.16,1548.03 3166.62,1539.76C3158.09,1531.5 3153.42,1518.16 3152.62,1499.76Z" style="fill-rule:nonzero;"/>
                <path d="M3413.42,1614.96L3499.82,1382.56L3441.02,1382.56L3395.82,1524.16L3395.02,1524.16L3348.22,1382.56L3287.82,1382.56L3360.22,1576.56C3361.82,1580.56 3362.62,1584.83 3362.62,1589.36C3362.62,1595.5 3360.82,1601.1 3357.22,1606.16C3353.62,1611.23 3348.09,1614.16 3340.62,1614.96C3335.02,1615.23 3329.42,1615.1 3323.82,1614.56C3318.22,1614.03 3312.76,1613.5 3307.42,1612.96L3307.42,1659.76C3313.29,1660.3 3319.09,1660.76 3324.82,1661.16C3330.56,1661.56 3336.36,1661.76 3342.22,1661.76C3361.69,1661.76 3376.89,1658.16 3387.82,1650.96C3398.76,1643.76 3407.29,1631.76 3413.42,1614.96Z" style="fill-rule:nonzero;"/>
                <path d="M3646.62,1486.16C3646.62,1494.7 3645.69,1502.96 3643.82,1510.96C3641.96,1518.96 3639.02,1526.03 3635.02,1532.16C3631.02,1538.3 3626.02,1543.16 3620.02,1546.76C3614.02,1550.36 3606.76,1552.16 3598.22,1552.16C3589.96,1552.16 3582.76,1550.36 3576.62,1546.76C3570.49,1543.16 3565.42,1538.3 3561.42,1532.16C3557.42,1526.03 3554.49,1518.96 3552.62,1510.96C3550.76,1502.96 3549.82,1494.7 3549.82,1486.16C3549.82,1477.36 3550.76,1468.96 3552.62,1460.96C3554.49,1452.96 3557.42,1445.9 3561.42,1439.76C3565.42,1433.63 3570.49,1428.76 3576.62,1425.16C3582.76,1421.56 3589.96,1419.76 3598.22,1419.76C3606.76,1419.76 3614.02,1421.56 3620.02,1425.16C3626.02,1428.76 3631.02,1433.63 3635.02,1439.76C3639.02,1445.9 3641.96,1452.96 3643.82,1460.96C3645.69,1468.96 3646.62,1477.36 3646.62,1486.16ZM3495.02,1303.76L3495.02,1589.36L3549.02,1589.36L3549.02,1562.96L3549.82,1562.96C3555.96,1574.43 3565.02,1582.56 3577.02,1587.36C3589.02,1592.16 3602.62,1594.56 3617.82,1594.56C3628.22,1594.56 3638.49,1592.43 3648.62,1588.16C3658.76,1583.9 3667.89,1577.36 3676.02,1568.56C3684.16,1559.76 3690.76,1548.5 3695.82,1534.76C3700.89,1521.03 3703.42,1504.7 3703.42,1485.76C3703.42,1466.83 3700.89,1450.5 3695.82,1436.76C3690.76,1423.03 3684.16,1411.76 3676.02,1402.96C3667.89,1394.16 3658.76,1387.63 3648.62,1383.36C3638.49,1379.1 3628.22,1376.96 3617.82,1376.96C3605.02,1376.96 3592.69,1379.43 3580.82,1384.36C3568.96,1389.3 3559.56,1397.1 3552.62,1407.76L3551.82,1407.76L3551.82,1303.76L3495.02,1303.76Z" style="fill-rule:nonzero;"/>
                <path d="M3773.82,1350.56L3773.82,1303.76L3717.02,1303.76L3717.02,1350.56L3773.82,1350.56ZM3717.02,1382.56L3717.02,1589.36L3773.82,1589.36L3773.82,1382.56L3717.02,1382.56Z" style="fill-rule:nonzero;"/>
                <path d="M3794.62,1382.56L3794.62,1589.36L3851.42,1589.36L3851.42,1496.16C3851.42,1486.83 3852.36,1478.16 3854.22,1470.16C3856.09,1462.16 3859.22,1455.16 3863.62,1449.16C3868.02,1443.16 3873.82,1438.43 3881.02,1434.96C3888.22,1431.5 3897.02,1429.76 3907.42,1429.76C3910.89,1429.76 3914.49,1429.96 3918.22,1430.36C3921.96,1430.76 3925.16,1431.23 3927.82,1431.76L3927.82,1378.96C3923.29,1377.63 3919.16,1376.96 3915.42,1376.96C3908.22,1376.96 3901.29,1378.03 3894.62,1380.16C3887.96,1382.3 3881.69,1385.3 3875.82,1389.16C3869.96,1393.03 3864.76,1397.7 3860.22,1403.16C3855.69,1408.63 3852.09,1414.56 3849.42,1420.96L3848.62,1420.96L3848.62,1382.56L3794.62,1382.56Z" style="fill-rule:nonzero;"/>
                <path d="M4065.82,1485.36C4065.82,1493.9 4065.02,1502.16 4063.42,1510.16C4061.82,1518.16 4059.16,1525.3 4055.42,1531.56C4051.69,1537.83 4046.69,1542.83 4040.42,1546.56C4034.16,1550.3 4026.36,1552.16 4017.02,1552.16C4008.22,1552.16 4000.69,1550.23 3994.42,1546.36C3988.16,1542.5 3982.96,1537.43 3978.82,1531.16C3974.69,1524.9 3971.69,1517.76 3969.82,1509.76C3967.96,1501.76 3967.02,1493.76 3967.02,1485.76C3967.02,1477.23 3967.89,1469.03 3969.62,1461.16C3971.36,1453.3 3974.16,1446.3 3978.02,1440.16C3981.89,1434.03 3987.02,1429.1 3993.42,1425.36C3999.82,1421.63 4007.69,1419.76 4017.02,1419.76C4026.36,1419.76 4034.09,1421.63 4040.22,1425.36C4046.36,1429.1 4051.36,1433.96 4055.22,1439.96C4059.09,1445.96 4061.82,1452.9 4063.42,1460.76C4065.02,1468.63 4065.82,1476.83 4065.82,1485.36ZM4066.62,1562.96L4066.62,1589.36L4120.62,1589.36L4120.62,1303.76L4063.82,1303.76L4063.82,1407.76L4063.02,1407.76C4056.62,1397.63 4047.89,1389.96 4036.82,1384.76C4025.76,1379.56 4014.09,1376.96 4001.82,1376.96C3986.62,1376.96 3973.29,1379.96 3961.82,1385.96C3950.36,1391.96 3940.82,1399.9 3933.22,1409.76C3925.62,1419.63 3919.89,1431.03 3916.02,1443.96C3912.16,1456.9 3910.22,1470.3 3910.22,1484.16C3910.22,1498.56 3912.16,1512.43 3916.02,1525.76C3919.89,1539.1 3925.62,1550.9 3933.22,1561.16C3940.82,1571.43 3950.49,1579.56 3962.22,1585.56C3973.96,1591.56 3987.56,1594.56 4003.02,1594.56C4016.62,1594.56 4028.82,1592.1 4039.62,1587.16C4050.42,1582.23 4059.16,1574.16 4065.82,1562.96L4066.62,1562.96Z" style="fill-rule:nonzero;"/>
            </g>
            <g id="Plus" transform="matrix(0.81334,0,0,0.900763,-1062.94,-1531.63)">
                <g transform="matrix(1.38735,-0,-0,1.38735,1714.48,2298.52)">
                </g>
            </g>
            <g id="chevron">
            </g>
        </g>
    </g>
</svg>
